<svg width="123" height="30" viewBox="0 0 123 30" fill="none" xmlns="http://www.w3.org/2000/svg">
<path d="M16.684 3.728V8.66H6.388V13.988H14.092V18.776H6.388V29H0.232V3.728H16.684ZM26.0755 2.36V29H19.9195V2.36H26.0755ZM39.6807 29.288C37.7127 29.288 35.9367 28.868 34.3527 28.028C32.7927 27.188 31.5567 25.988 30.6447 24.428C29.7567 22.868 29.3127 21.044 29.3127 18.956C29.3127 16.892 29.7687 15.08 30.6807 13.52C31.5927 11.936 32.8407 10.724 34.4247 9.884C36.0087 9.044 37.7847 8.624 39.7527 8.624C41.7207 8.624 43.4967 9.044 45.0807 9.884C46.6647 10.724 47.9127 11.936 48.8247 13.52C49.7367 15.08 50.1927 16.892 50.1927 18.956C50.1927 21.02 49.7247 22.844 48.7887 24.428C47.8767 25.988 46.6167 27.188 45.0087 28.028C43.4247 28.868 41.6487 29.288 39.6807 29.288ZM39.6807 23.96C40.8567 23.96 41.8527 23.528 42.6687 22.664C43.5087 21.8 43.9287 20.564 43.9287 18.956C43.9287 17.348 43.5207 16.112 42.7047 15.248C41.9127 14.384 40.9287 13.952 39.7527 13.952C38.5527 13.952 37.5567 14.384 36.7647 15.248C35.9727 16.088 35.5767 17.324 35.5767 18.956C35.5767 20.564 35.9607 21.8 36.7287 22.664C37.5207 23.528 38.5047 23.96 39.6807 23.96ZM52.2346 18.92C52.2346 16.856 52.6186 15.044 53.3866 13.484C54.1786 11.924 55.2466 10.724 56.5906 9.884C57.9346 9.044 59.4346 8.624 61.0906 8.624C62.5066 8.624 63.7426 8.912 64.7986 9.488C65.8786 10.064 66.7066 10.82 67.2826 11.756V8.912H73.4386V29H67.2826V26.156C66.6826 27.092 65.8426 27.848 64.7626 28.424C63.7066 29 62.4706 29.288 61.0546 29.288C59.4226 29.288 57.9346 28.868 56.5906 28.028C55.2466 27.164 54.1786 25.952 53.3866 24.392C52.6186 22.808 52.2346 20.984 52.2346 18.92ZM67.2826 18.956C67.2826 17.42 66.8506 16.208 65.9866 15.32C65.1466 14.432 64.1146 13.988 62.8906 13.988C61.6666 13.988 60.6226 14.432 59.7586 15.32C58.9186 16.184 58.4986 17.384 58.4986 18.92C58.4986 20.456 58.9186 21.68 59.7586 22.592C60.6226 23.48 61.6666 23.924 62.8906 23.924C64.1146 23.924 65.1466 23.48 65.9866 22.592C66.8506 21.704 67.2826 20.492 67.2826 18.956ZM89.0882 23.78V29H85.9562C83.7242 29 81.9842 28.46 80.7362 27.38C79.4882 26.276 78.8642 24.488 78.8642 22.016V14.024H76.4162V8.912H78.8642V4.016H85.0202V8.912H89.0522V14.024H85.0202V22.088C85.0202 22.688 85.1642 23.12 85.4522 23.384C85.7402 23.648 86.2202 23.78 86.8922 23.78H89.0882ZM95.6132 6.824C94.5332 6.824 93.6452 6.512 92.9492 5.888C92.2772 5.24 91.9412 4.448 91.9412 3.512C91.9412 2.552 92.2772 1.76 92.9492 1.136C93.6452 0.487998 94.5332 0.163998 95.6132 0.163998C96.6692 0.163998 97.5332 0.487998 98.2052 1.136C98.9012 1.76 99.2492 2.552 99.2492 3.512C99.2492 4.448 98.9012 5.24 98.2052 5.888C97.5332 6.512 96.6692 6.824 95.6132 6.824ZM98.6732 8.912V29H92.5172V8.912H98.6732ZM122.07 18.632C122.07 19.208 122.034 19.808 121.962 20.432H108.03C108.126 21.68 108.522 22.64 109.218 23.312C109.938 23.96 110.814 24.284 111.846 24.284C113.382 24.284 114.45 23.636 115.05 22.34H121.602C121.266 23.66 120.654 24.848 119.766 25.904C118.902 26.96 117.81 27.788 116.49 28.388C115.17 28.988 113.694 29.288 112.062 29.288C110.094 29.288 108.342 28.868 106.806 28.028C105.27 27.188 104.07 25.988 103.206 24.428C102.342 22.868 101.91 21.044 101.91 18.956C101.91 16.868 102.33 15.044 103.17 13.484C104.034 11.924 105.234 10.724 106.77 9.884C108.306 9.044 110.07 8.624 112.062 8.624C114.006 8.624 115.734 9.032 117.246 9.848C118.758 10.664 119.934 11.828 120.774 13.34C121.638 14.852 122.07 16.616 122.07 18.632ZM115.77 17.012C115.77 15.956 115.41 15.116 114.69 14.492C113.97 13.868 113.07 13.556 111.99 13.556C110.958 13.556 110.082 13.856 109.362 14.456C108.666 15.056 108.234 15.908 108.066 17.012H115.77Z" fill="white"/>
</svg>
