<svg width="245" height="59" viewBox="0 0 245 59" fill="none" xmlns="http://www.w3.org/2000/svg">
<path d="M33.4657 7.456V17.32H12.8737V27.976H28.2817V37.552H12.8737V58H0.561656V7.456H33.4657ZM52.2487 4.72V58H39.9367V4.72H52.2487ZM79.459 58.576C75.523 58.576 71.971 57.736 68.803 56.056C65.683 54.376 63.211 51.976 61.387 48.856C59.611 45.736 58.723 42.088 58.723 37.912C58.723 33.784 59.635 30.16 61.459 27.04C63.283 23.872 65.779 21.448 68.947 19.768C72.115 18.088 75.667 17.248 79.603 17.248C83.539 17.248 87.091 18.088 90.259 19.768C93.427 21.448 95.923 23.872 97.747 27.04C99.571 30.16 100.483 33.784 100.483 37.912C100.483 42.04 99.547 45.688 97.675 48.856C95.851 51.976 93.331 54.376 90.115 56.056C86.947 57.736 83.395 58.576 79.459 58.576ZM79.459 47.92C81.811 47.92 83.803 47.056 85.435 45.328C87.115 43.6 87.955 41.128 87.955 37.912C87.955 34.696 87.139 32.224 85.507 30.496C83.923 28.768 81.955 27.904 79.603 27.904C77.203 27.904 75.211 28.768 73.627 30.496C72.043 32.176 71.251 34.648 71.251 37.912C71.251 41.128 72.019 43.6 73.555 45.328C75.139 47.056 77.107 47.92 79.459 47.92ZM104.567 37.84C104.567 33.712 105.335 30.088 106.871 26.968C108.455 23.848 110.591 21.448 113.279 19.768C115.967 18.088 118.967 17.248 122.279 17.248C125.111 17.248 127.583 17.824 129.695 18.976C131.855 20.128 133.511 21.64 134.663 23.512V17.824H146.975V58H134.663V52.312C133.463 54.184 131.783 55.696 129.623 56.848C127.511 58 125.039 58.576 122.207 58.576C118.943 58.576 115.967 57.736 113.279 56.056C110.591 54.328 108.455 51.904 106.871 48.784C105.335 45.616 104.567 41.968 104.567 37.84ZM134.663 37.912C134.663 34.84 133.799 32.416 132.071 30.64C130.391 28.864 128.327 27.976 125.879 27.976C123.431 27.976 121.343 28.864 119.615 30.64C117.935 32.368 117.095 34.768 117.095 37.84C117.095 40.912 117.935 43.36 119.615 45.184C121.343 46.96 123.431 47.848 125.879 47.848C128.327 47.848 130.391 46.96 132.071 45.184C133.799 43.408 134.663 40.984 134.663 37.912ZM178.274 47.56V58H172.01C167.546 58 164.066 56.92 161.57 54.76C159.074 52.552 157.826 48.976 157.826 44.032V28.048H152.93V17.824H157.826V8.032H170.138V17.824H178.202V28.048H170.138V44.176C170.138 45.376 170.426 46.24 171.002 46.768C171.578 47.296 172.538 47.56 173.882 47.56H178.274ZM191.324 13.648C189.164 13.648 187.388 13.024 185.996 11.776C184.652 10.48 183.98 8.896 183.98 7.024C183.98 5.104 184.652 3.52 185.996 2.272C187.388 0.975996 189.164 0.327996 191.324 0.327996C193.436 0.327996 195.164 0.975996 196.508 2.272C197.9 3.52 198.596 5.104 198.596 7.024C198.596 8.896 197.9 10.48 196.508 11.776C195.164 13.024 193.436 13.648 191.324 13.648ZM197.444 17.824V58H185.132V17.824H197.444ZM244.238 37.264C244.238 38.416 244.166 39.616 244.022 40.864H216.158C216.35 43.36 217.142 45.28 218.534 46.624C219.974 47.92 221.726 48.568 223.79 48.568C226.862 48.568 228.998 47.272 230.198 44.68H243.302C242.63 47.32 241.406 49.696 239.63 51.808C237.902 53.92 235.718 55.576 233.078 56.776C230.438 57.976 227.486 58.576 224.222 58.576C220.286 58.576 216.782 57.736 213.71 56.056C210.638 54.376 208.238 51.976 206.51 48.856C204.782 45.736 203.918 42.088 203.918 37.912C203.918 33.736 204.758 30.088 206.438 26.968C208.166 23.848 210.566 21.448 213.638 19.768C216.71 18.088 220.238 17.248 224.222 17.248C228.11 17.248 231.566 18.064 234.59 19.696C237.614 21.328 239.966 23.656 241.646 26.68C243.374 29.704 244.238 33.232 244.238 37.264ZM231.638 34.024C231.638 31.912 230.918 30.232 229.478 28.984C228.038 27.736 226.238 27.112 224.078 27.112C222.014 27.112 220.262 27.712 218.822 28.912C217.43 30.112 216.566 31.816 216.23 34.024H231.638Z" fill="#90A0B7"/>
</svg>
